<svg width="16" height="16" viewBox="0 0 16 16" fill="none" xmlns="http://www.w3.org/2000/svg">
<g id="icon/calendar">
<path id="Vector" d="M4.66699 7.33337H6.00033V8.66671H4.66699V7.33337ZM4.66699 10H6.00033V11.3334H4.66699V10ZM7.33366 7.33337H8.66699V8.66671H7.33366V7.33337ZM7.33366 10H8.66699V11.3334H7.33366V10ZM10.0003 7.33337H11.3337V8.66671H10.0003V7.33337ZM10.0003 10H11.3337V11.3334H10.0003V10Z" fill="#055B8C"/>
<path id="Vector_2" d="M3.33333 14.6667H12.6667C13.402 14.6667 14 14.0687 14 13.3334V4.00004C14 3.26471 13.402 2.66671 12.6667 2.66671H11.3333V1.33337H10V2.66671H6V1.33337H4.66667V2.66671H3.33333C2.598 2.66671 2 3.26471 2 4.00004V13.3334C2 14.0687 2.598 14.6667 3.33333 14.6667ZM12.6667 5.33337L12.6673 13.3334H3.33333V5.33337H12.6667Z" fill="#395164"/>
</g>
</svg>
