<svg width="28" height="28" viewBox="0 0 28 28" fill="none" xmlns="http://www.w3.org/2000/svg">
<g id="icon/account">
<path id="Vector" d="M13.9997 2.33331C10.9177 2.37262 7.97302 3.6144 5.79356 5.79386C3.61409 7.97332 2.37231 10.918 2.33301 14C2.34741 15.7954 2.77602 17.5632 3.58544 19.1659C4.39486 20.7685 5.56326 22.1628 6.99967 23.24V23.3333H7.11634C9.09172 24.847 11.511 25.6674 13.9997 25.6674C16.4883 25.6674 18.9076 24.847 20.883 23.3333H20.9997V23.24C22.4361 22.1628 23.6045 20.7685 24.4139 19.1659C25.2233 17.5632 25.6519 15.7954 25.6663 14C25.627 10.918 24.3853 7.97332 22.2058 5.79386C20.0263 3.6144 17.0816 2.37262 13.9997 2.33331ZM9.41467 22.085C9.58499 21.305 10.0168 20.6067 10.6386 20.1059C11.2604 19.6051 12.0346 19.3319 12.833 19.3316H15.1663C15.9647 19.3319 16.739 19.6051 17.3607 20.1059C17.9825 20.6067 18.4144 21.305 18.5847 22.085C17.195 22.9026 15.612 23.3337 13.9997 23.3337C12.3873 23.3337 10.8043 22.9026 9.41467 22.085ZM20.5447 20.58C20.1009 19.5194 19.3536 18.6136 18.3968 17.9764C17.4399 17.3392 16.316 16.9989 15.1663 16.9983H12.833C11.6833 16.9989 10.5595 17.3392 9.6026 17.9764C8.6457 18.6136 7.89844 19.5194 7.45467 20.58C6.58045 19.7201 5.88423 18.6964 5.40579 17.5674C4.92735 16.4384 4.67609 15.2262 4.66634 14C4.6966 11.534 5.68965 9.1776 7.43347 7.43378C9.17729 5.68995 11.5337 4.69691 13.9997 4.66665C16.4656 4.69691 18.8221 5.68995 20.5659 7.43378C22.3097 9.1776 23.3027 11.534 23.333 14C23.3233 15.2262 23.072 16.4384 22.5936 17.5674C22.1151 18.6964 21.4189 19.7201 20.5447 20.58Z" fill="#395164"/>
<path id="Vector_2" d="M13.9999 7.00002C13.3832 6.98565 12.7699 7.09654 12.1972 7.32597C11.6245 7.55541 11.1043 7.89862 10.6681 8.33486C10.2319 8.7711 9.88866 9.29129 9.65922 9.86397C9.42979 10.4366 9.3189 11.0499 9.33327 11.6667C9.3189 12.2834 9.42979 12.8967 9.65922 13.4694C9.88866 14.0421 10.2319 14.5623 10.6681 14.9985C11.1043 15.4347 11.6245 15.778 12.1972 16.0074C12.7699 16.2368 13.3832 16.3477 13.9999 16.3333C14.6167 16.3477 15.23 16.2368 15.8026 16.0074C16.3753 15.778 16.8955 15.4347 17.3318 14.9985C17.768 14.5623 18.1112 14.0421 18.3406 13.4694C18.5701 12.8967 18.681 12.2834 18.6666 11.6667C18.681 11.0499 18.5701 10.4366 18.3406 9.86397C18.1112 9.29129 17.768 8.7711 17.3318 8.33486C16.8955 7.89862 16.3753 7.55541 15.8026 7.32597C15.23 7.09654 14.6167 6.98565 13.9999 7.00002ZM13.9999 14C13.6895 14.015 13.3794 13.9649 13.0896 13.853C12.7997 13.741 12.5364 13.5697 12.3167 13.35C12.0969 13.1302 11.9256 12.8669 11.8136 12.5771C11.7017 12.2872 11.6516 11.9771 11.6666 11.6667C11.6516 11.3563 11.7017 11.0462 11.8136 10.7563C11.9256 10.4664 12.0969 10.2031 12.3167 9.98341C12.5364 9.76368 12.7997 9.59233 13.0896 9.48038C13.3794 9.36843 13.6895 9.31834 13.9999 9.33335C14.3103 9.31834 14.6204 9.36843 14.9103 9.48038C15.2002 9.59233 15.4635 9.76368 15.6832 9.98341C15.9029 10.2031 16.0743 10.4664 16.1862 10.7563C16.2982 11.0462 16.3483 11.3563 16.3333 11.6667C16.3483 11.9771 16.2982 12.2872 16.1862 12.5771C16.0743 12.8669 15.9029 13.1302 15.6832 13.35C15.4635 13.5697 15.2002 13.741 14.9103 13.853C14.6204 13.9649 14.3103 14.015 13.9999 14Z" fill="#395164"/>
</g>
</svg>
