<svg width="16" height="16" viewBox="0 0 16 16" fill="none" xmlns="http://www.w3.org/2000/svg">
<g id="icon/users">
<path id="Vector" d="M8 1.33331C7.34073 1.33331 6.69626 1.52881 6.1481 1.89508C5.59994 2.26135 5.17269 2.78195 4.9204 3.39103C4.66811 4.00012 4.6021 4.67034 4.73072 5.31695C4.85933 5.96355 5.1768 6.55749 5.64298 7.02367C6.10915 7.48984 6.7031 7.80731 7.3497 7.93593C7.9963 8.06455 8.66652 7.99854 9.27561 7.74625C9.8847 7.49395 10.4053 7.06671 10.7716 6.51855C11.1378 5.97038 11.3333 5.32592 11.3333 4.66665C11.3333 3.78259 10.9821 2.93475 10.357 2.30962C9.7319 1.6845 8.88406 1.33331 8 1.33331ZM8 6.66665C7.60444 6.66665 7.21776 6.54935 6.88886 6.32959C6.55996 6.10982 6.30362 5.79747 6.15224 5.43201C6.00087 5.06656 5.96126 4.66443 6.03843 4.27647C6.1156 3.8885 6.30608 3.53214 6.58579 3.25243C6.86549 2.97273 7.22186 2.78225 7.60982 2.70508C7.99778 2.62791 8.39991 2.66751 8.76537 2.81889C9.13082 2.97026 9.44318 3.22661 9.66294 3.55551C9.8827 3.8844 10 4.27108 10 4.66665C10 5.19708 9.78929 5.70579 9.41421 6.08086C9.03914 6.45593 8.53043 6.66665 8 6.66665ZM14 14V13.3333C14 12.0956 13.5083 10.9087 12.6332 10.0335C11.758 9.15831 10.571 8.66665 9.33333 8.66665H6.66667C5.42899 8.66665 4.242 9.15831 3.36683 10.0335C2.49167 10.9087 2 12.0956 2 13.3333V14H3.33333V13.3333C3.33333 12.4493 3.68452 11.6014 4.30964 10.9763C4.93477 10.3512 5.78261 9.99998 6.66667 9.99998H9.33333C10.2174 9.99998 11.0652 10.3512 11.6904 10.9763C12.3155 11.6014 12.6667 12.4493 12.6667 13.3333V14H14Z" fill="white"/>
</g>
</svg>
