<svg width="16" height="16" viewBox="0 0 16 16" fill="none" xmlns="http://www.w3.org/2000/svg">
<g id="icon/users">
<path id="Vector" d="M8 1.33337C7.34073 1.33337 6.69626 1.52887 6.1481 1.89514C5.59994 2.26141 5.17269 2.78201 4.9204 3.3911C4.66811 4.00018 4.6021 4.67041 4.73072 5.31701C4.85933 5.96361 5.1768 6.55756 5.64298 7.02373C6.10915 7.48991 6.7031 7.80737 7.3497 7.93599C7.9963 8.06461 8.66652 7.9986 9.27561 7.74631C9.8847 7.49401 10.4053 7.06677 10.7716 6.51861C11.1378 5.97044 11.3333 5.32598 11.3333 4.66671C11.3333 3.78265 10.9821 2.93481 10.357 2.30968C9.7319 1.68456 8.88406 1.33337 8 1.33337ZM8 6.66671C7.60444 6.66671 7.21776 6.54941 6.88886 6.32965C6.55996 6.10988 6.30362 5.79753 6.15224 5.43207C6.00087 5.06662 5.96126 4.66449 6.03843 4.27653C6.1156 3.88856 6.30608 3.5322 6.58579 3.25249C6.86549 2.97279 7.22186 2.78231 7.60982 2.70514C7.99778 2.62797 8.39991 2.66757 8.76537 2.81895C9.13082 2.97032 9.44318 3.22667 9.66294 3.55557C9.8827 3.88447 10 4.27114 10 4.66671C10 5.19714 9.78929 5.70585 9.41421 6.08092C9.03914 6.45599 8.53043 6.66671 8 6.66671ZM14 14V13.3334C14 12.0957 13.5083 10.9087 12.6332 10.0335C11.758 9.15837 10.571 8.66671 9.33333 8.66671H6.66667C5.42899 8.66671 4.242 9.15837 3.36683 10.0335C2.49167 10.9087 2 12.0957 2 13.3334V14H3.33333V13.3334C3.33333 12.4493 3.68452 11.6015 4.30964 10.9764C4.93477 10.3512 5.78261 10 6.66667 10H9.33333C10.2174 10 11.0652 10.3512 11.6904 10.9764C12.3155 11.6015 12.6667 12.4493 12.6667 13.3334V14H14Z" fill="white"/>
</g>
</svg>
