<svg width="265" height="227" viewBox="0 0 265 227" fill="none" xmlns="http://www.w3.org/2000/svg">
<path fill-rule="evenodd" clip-rule="evenodd" d="M186.128 0.652189C141.661 -7.05378 146.195 70.0828 87.0286 59.5252C26.5113 48.7264 8.42389 124.905 26.5113 166.983C46.0469 212.43 171.137 236.862 215.889 203.36C266.257 165.653 269.56 15.1107 186.128 0.652189Z" fill="#ECF1F6"/>
<path fill-rule="evenodd" clip-rule="evenodd" d="M87.3734 83.4634C87.3734 83.4634 92.4791 95.2234 96.9137 100.675C103.207 108.411 112.193 114.838 115.567 120.872C123.586 135.208 120.029 142.221 120.029 142.221C120.029 142.221 115.793 126.766 109.722 119.218C105.088 113.456 95.9858 107.067 92.9435 102.335C87.463 93.8124 84.6318 85.6473 84.6318 85.6473L87.3734 83.4634Z" fill="white"/>
<path d="M150.409 208.633C129.474 209.666 108.554 211.036 87.6591 212.742C84.9793 213.022 82.9969 213.064 83.1027 213.364C81.2189 213.238 77.8134 212.155 75.8338 213.022C77.325 213.387 80.1439 214.779 80.3114 216.387C60.5926 217.588 40.7643 216.777 21.1924 213.97C40.3556 215.35 59.5773 215.823 78.7806 215.389C76.306 213.634 73.1234 213.037 70.2281 213.784C73.9601 211.878 78.2851 211.297 82.35 212.155C79.2484 208.49 77.1929 203.85 76.5164 198.986C79.6147 201.224 82.0927 204.409 83.5714 208.053C83.43 201.203 88.0189 194.547 94.2343 192.587C90.2651 197.927 88.167 204.784 88.4266 211.568C108.27 209.777 128.157 208.525 148.062 207.812C147.079 206.989 146.411 205.759 146.234 204.447C147.207 203.57 148.645 203.312 149.838 203.8C150.714 196.477 155.537 189.826 162.003 187.026C158.401 191.323 155.899 196.638 154.83 202.265C155.941 201.554 157.347 201.382 158.583 201.805C158.23 203.392 157.349 204.842 156.13 205.84C180.776 199.89 206.647 210.028 231.682 206.309C219.044 210.627 205.389 207.279 192.178 205.827C172.839 203.8 154.266 207.812 150.409 208.633Z" fill="white"/>
<path d="M202.558 50.2787C202.775 48.0998 204.551 46.4665 206.372 45.4183C209.666 43.5224 213.544 42.7825 217.258 43.3417C218.94 43.5949 220.222 41.9023 221.423 40.634C224.542 37.3421 229.308 36.1403 233.657 36.9008C238.007 37.6612 241.948 40.1992 245.122 43.431C248.296 46.6627 250.774 50.5732 253.067 54.5506C253.548 55.385 254.664 55.4071 255.588 55.3593C257.581 55.256 259.678 55.3142 261.419 56.3441C263.161 57.3739 264.384 59.6599 263.68 61.632C263.35 62.5556 262.649 63.2918 261.849 63.8015C260.252 64.8181 258.316 64.9931 256.458 65.143C244.062 66.1429 231.666 67.1427 219.271 68.1426C215.879 68.4162 212.434 68.6865 209.103 67.9576C205.773 67.2288 202.512 65.3537 200.807 62.2446C199.101 59.1356 199.387 54.7068 202.002 52.41C202.555 51.9248 202.483 51.0337 202.558 50.2787" fill="white"/>
<path d="M161.066 70.3405C163.772 73.6235 177.737 72.4738 178.19 78.4799C176.59 78.9435 174.99 79.407 173.39 79.8706C170.789 80.6242 168.158 81.3904 165.805 82.783C164.701 83.4365 163.388 84.2443 162.265 83.6277C157.922 81.2437 152.872 80.5029 148 80.995C143.128 81.4872 138.416 83.164 133.994 85.3812C131.686 86.5387 129.085 87.8755 126.696 86.9186C117.973 83.4251 108.023 83.4862 99.3394 87.0866C97.8 87.7249 96.0836 87.0165 94.5685 86.3162C92.9298 85.5588 91.2911 84.8013 89.6523 84.0439C91.7658 81.4904 100.801 77.9381 102.643 75.4669C102.967 75.0326 115.031 66.1951 128.26 70.1881C128.853 69.8943 149.429 66.1951 161.066 70.3405Z" fill="white"/>
<path fill-rule="evenodd" clip-rule="evenodd" d="M106.992 112.075C99.3207 104.373 90.4644 96.5771 88.3986 85.6126C92.1901 95.8987 100.609 103.304 107.993 111.114C115.378 118.924 122.372 128.667 121.916 139.695C133.989 136.91 146.501 136.258 158.775 137.772C160.033 131.786 163.696 126.747 166.57 121.42C173.694 108.214 176.102 92.8395 178.392 77.8331C178.97 74.0392 174.573 71.7903 171.047 70.8414C167.527 69.8937 164.006 68.946 160.485 67.9983C153.868 66.2172 147.012 64.4236 140.281 65.6414C135.73 66.4649 131.236 68.6557 126.684 67.8354C119.438 66.5298 111.751 68.1832 105.566 72.3775C102.457 74.4862 99.6933 77.2195 96.299 78.7622C89.1554 82.009 82.8632 87.3181 78.2867 93.96C75.8958 80.8956 79.9241 67.5255 84.6337 55.1842C89.8985 41.3882 96.5072 27.4295 107.835 18.5928C124.442 5.63697 146.095 8.15872 163.371 20.0996C180.646 32.0405 191.203 51.7313 194.614 73.2401C195.011 75.7419 195.292 78.4494 194.177 80.696C193.062 82.9426 192.641 84.2425 190.823 82.5852C189.274 81.1723 187.625 79.7071 185.614 79.3003C183.603 78.8936 181.164 79.9973 180.774 82.1201C177.92 97.6668 174.922 113.608 166.99 127.047C164.925 130.547 162.52 133.888 161.206 137.772C160.201 140.743 159.877 143.916 159.56 147.054C158.9 153.592 158.24 160.13 157.58 166.669C157.302 169.425 156.914 172.426 155.014 174.337C153.199 176.161 150.498 176.489 148.002 176.723C139.898 177.484 131.793 178.244 123.688 179.005C122.239 179.141 120.595 179.21 119.536 178.155C118.721 177.343 118.495 176.084 118.334 174.912C117.196 166.594 117.196 158.103 118.335 149.785C119.97 137.85 114.914 125.64 106.95 117C102.8 112.498 97.9055 108.817 93.7621 104.308C89.6187 99.7982 86.1508 94.1306 85.9022 87.8518C88.7216 96.104 93.9171 103.431 100.621 108.61C110.639 116.35 117.777 128.141 120.225 140.994C122.149 130.001 114.663 119.777 106.992 112.075Z" fill="white"/>
<path fill-rule="evenodd" clip-rule="evenodd" d="M86.2613 137.195C85.0457 136.491 84.598 134.912 84.2783 133.487C82.7101 126.495 81.5637 119.398 80.8483 112.253C80.8028 111.798 80.7819 111.274 81.0949 110.958C81.7652 111.793 81.8836 112.96 81.9864 114.049C82.7261 121.883 84.1593 129.643 86.2613 137.195Z" fill="#08253D"/>
<path fill-rule="evenodd" clip-rule="evenodd" d="M182.665 113.378C183.767 109.486 184.579 105.503 185.092 101.477C185.161 100.932 185.356 100.246 185.875 100.204C186.178 100.484 186.149 100.982 186.091 101.403C185.603 104.992 184.906 108.55 184.006 112.05C183.823 112.76 183.312 113.652 182.665 113.378H182.665Z" fill="#08253D"/>
<path fill-rule="evenodd" clip-rule="evenodd" d="M154.588 206.936C155.189 205.212 156.29 203.686 157.704 202.617C156.201 202.714 154.739 203.406 153.669 204.525C154.259 199.644 155.737 194.884 157.999 190.583C153.814 194.211 151.114 199.687 150.697 205.388C149.7 204.775 148.457 204.626 147.355 204.99C148.373 206.204 149.391 207.418 150.409 208.633C129.474 209.666 108.554 211.036 87.6591 212.742C86.5727 206.642 87.9853 200.092 91.4656 195.091C86.873 198.512 84.0379 204.418 84.1387 210.354C82.091 207.468 81.0709 203.347 77.9957 201.698C78.5399 204.525 79.1683 205.161 82.7804 212.465C82.9281 212.764 82.9969 213.064 83.1027 213.364C81.2189 213.238 77.8134 212.155 75.8338 213.022C77.325 213.387 80.1439 214.779 80.3114 216.387C60.5926 217.588 40.7643 216.777 21.1924 213.97C40.3556 215.35 59.5773 215.823 78.7806 215.389C76.306 213.634 73.1234 213.037 70.2281 213.784C73.9601 211.878 78.2851 211.297 82.35 212.155C79.2484 208.49 77.1929 203.85 76.5164 198.986C79.6147 201.224 82.0927 204.409 83.5714 208.053C83.43 201.203 88.0189 194.547 94.2343 192.587C90.2651 197.927 88.167 204.784 88.4266 211.568C108.27 209.777 128.157 208.525 148.062 207.812C147.079 206.989 146.411 205.759 146.234 204.447C147.207 203.57 148.645 203.312 149.838 203.8C150.714 196.477 155.537 189.826 162.003 187.026C158.401 191.323 155.899 196.638 154.83 202.265C155.941 201.554 157.347 201.382 158.583 201.805C158.23 203.392 157.349 204.842 156.13 205.84C180.776 199.89 206.647 210.028 231.682 206.309C219.044 210.627 205.389 207.279 192.178 205.827C179.674 204.453 166.999 204.827 154.588 206.936Z" fill="#08253D"/>
<path fill-rule="evenodd" clip-rule="evenodd" d="M165.684 111.746C165.986 112.215 165.892 112.843 165.77 113.395C165.038 116.715 163.748 119.896 161.978 122.746C161.486 122.098 161.939 121.159 162.353 120.452C163.456 118.572 164.266 116.501 164.742 114.347C164.943 113.433 165.106 112.458 165.684 111.746H165.684Z" fill="#08253D"/>
<path fill-rule="evenodd" clip-rule="evenodd" d="M160.967 117.772C160.512 117.357 160.716 116.585 160.934 115.993C161.635 114.091 162.106 112.096 162.332 110.069C162.407 109.397 162.526 108.607 163.1 108.306C163.37 108.563 163.329 109.015 163.267 109.394C162.792 112.272 162.297 115.21 160.967 117.772Z" fill="#08253D"/>
<path fill-rule="evenodd" clip-rule="evenodd" d="M123.077 128.501C123.211 128.374 123.418 128.504 123.542 128.641C124.097 129.254 124.427 130.088 124.452 130.936C123.71 130.516 123.166 129.725 123.017 128.85C122.996 128.728 122.99 128.583 123.077 128.501L123.077 128.501Z" fill="#08253D"/>
<path fill-rule="evenodd" clip-rule="evenodd" d="M181.455 102.795C181.258 106.491 180.459 110.151 179.104 113.565C179.069 113.653 179.031 113.745 178.963 113.807C178.762 113.99 178.422 113.793 178.35 113.523C178.278 113.253 178.381 112.969 178.478 112.708C179.434 110.153 180.068 107.464 180.359 104.734C180.445 103.922 180.687 102.89 181.455 102.795L181.455 102.795Z" fill="#08253D"/>
<path fill-rule="evenodd" clip-rule="evenodd" d="M121.784 122.127C120.482 120.267 119.435 118.209 118.686 116.037C118.59 115.757 118.648 115.286 118.92 115.363C119.022 115.393 119.083 115.501 119.133 115.599C120.264 117.826 121.394 120.052 122.524 122.279C122.467 122.613 121.976 122.4 121.784 122.127H121.784Z" fill="#08253D"/>
<path fill-rule="evenodd" clip-rule="evenodd" d="M84.7165 83.49C84.1185 83.1623 84.0944 82.2817 84.1662 81.5741C85.5043 68.3856 91.5827 55.7952 100.903 46.9067C101.117 48.58 99.8944 50.0291 98.8102 51.2698C91.0879 60.1063 86.082 71.5507 84.7165 83.49Z" fill="#08253D"/>
<path fill-rule="evenodd" clip-rule="evenodd" d="M163.066 83.4769C163.236 79.1466 162.551 74.3808 161.066 70.3404C163.772 73.6233 163.884 78.4 163.855 82.7527C168.171 80.0411 173.168 78.5515 178.19 78.4798C176.59 78.9433 174.99 79.4069 173.39 79.8704C170.789 80.6241 168.158 81.3903 165.805 82.7828C164.701 83.4363 163.388 84.2441 162.265 83.6276C157.922 81.2436 152.872 80.5028 148 80.9949C143.128 81.487 138.416 83.5639 133.994 85.7811C131.686 86.9386 129.085 88.2754 126.696 87.3185C117.973 83.825 108.023 83.4861 99.3394 87.0865C97.8 87.7248 96.0836 87.0164 94.5685 86.3161C92.9298 85.5586 91.2911 84.8012 89.6523 84.0438C91.5574 84.4661 96.2878 86.2637 96.2878 86.2637C96.2878 86.2637 97.6505 86.4376 98.0794 85.8848C98.5083 85.332 98.6437 84.5971 98.7983 83.9013C99.4785 80.8391 100.801 77.938 102.643 75.4667C102.967 75.0325 103.66 74.6271 103.918 75.108C101.368 78.2291 99.6685 82.1157 99.0711 86.1894C108.362 82.4877 118.965 82.6046 128.181 86.5103C129.061 81.1242 129.088 75.5834 128.26 70.1879C128.853 69.8941 129.288 70.8271 129.347 71.5161C129.772 76.534 129.695 81.5991 129.119 86.6002C134.449 83.8805 139.977 81.4228 145.822 80.431C151.666 79.4392 157.904 80.4155 163.066 83.4769Z" fill="#08253D"/>
<path fill-rule="evenodd" clip-rule="evenodd" d="M95.3212 72.7246C98.1076 64.3013 102.451 56.4561 108.035 49.7609C108.444 49.27 108.931 48.7487 109.55 48.7265C110.169 48.7043 110.75 49.5589 110.313 50.0227C103.889 56.8453 98.8783 65.1452 95.732 74.1757C95.1657 74.1916 95.1344 73.2894 95.3212 72.7246H95.3212Z" fill="#08253D"/>
<path fill-rule="evenodd" clip-rule="evenodd" d="M86.5192 110.656C86.6006 110.76 86.61 110.906 86.6164 111.042C86.884 116.652 88.2335 122.133 89.5761 127.568C89.6334 127.8 89.3128 127.968 89.1115 127.857C88.9103 127.746 88.8221 127.497 88.752 127.269C87.1859 122.177 86.1864 116.891 85.7805 111.554C85.7603 111.288 85.7461 111.001 85.8802 110.775C86.0143 110.549 86.3591 110.449 86.5192 110.656H86.5192Z" fill="#08253D"/>
<path fill-rule="evenodd" clip-rule="evenodd" d="M128.471 65.1011C127.912 65.1258 127.729 64.3229 127.738 63.7318C127.822 57.5533 127.907 51.3747 127.992 45.1961C128.001 44.5139 128.176 43.6253 128.818 43.5503C129.389 44.2565 129.376 45.2832 129.334 46.2107C129.046 52.5075 128.759 58.8043 128.471 65.1011Z" fill="#08253D"/>
<path fill-rule="evenodd" clip-rule="evenodd" d="M182.327 74.557C183.567 72.4314 183.483 69.7567 183.274 67.27C182.908 62.9144 182.281 58.5833 181.396 54.3115C181.312 53.902 181.261 53.386 181.587 53.1477C181.857 52.9508 182.251 53.0869 182.463 53.3518C182.674 53.6167 182.748 53.971 182.813 54.3106C183.827 59.6212 184.289 65.0494 184.188 70.466C184.15 72.4802 183.837 74.8431 182.164 75.8088C181.842 75.4989 182.099 74.9486 182.327 74.557H182.327Z" fill="#08253D"/>
<path fill-rule="evenodd" clip-rule="evenodd" d="M162.696 60.2425C163.117 62.2175 162.938 64.3299 162.193 66.195C161.681 65.6142 161.825 64.7032 161.914 63.9153C162.258 60.8547 161.243 57.8067 159.996 55.0205C158.748 52.2343 157.241 49.5441 156.491 46.5655C156.378 46.1174 156.395 45.4684 156.828 45.3892C157.193 45.3222 157.442 45.7588 157.578 46.1232C158.98 49.8751 160.382 53.6271 161.784 57.379C162.135 58.3167 162.486 59.259 162.696 60.2425Z" fill="#08253D"/>
<path fill-rule="evenodd" clip-rule="evenodd" d="M200.664 49.0785C200.881 46.8996 202.657 45.2663 204.478 44.2181C207.772 42.3222 211.651 41.5823 215.365 42.1415C217.046 42.3947 218.328 40.7021 219.53 39.4338C222.648 36.142 227.414 34.9401 231.764 35.7006C236.113 36.461 240.054 38.999 243.229 42.2308C246.403 45.4625 248.881 49.373 251.174 53.3505C251.655 54.1848 252.77 54.2069 253.694 54.1591C255.687 54.0558 257.785 54.114 259.526 55.1439C261.267 56.1737 262.491 58.4597 261.786 60.4318C261.456 61.3554 260.755 62.0916 259.955 62.6013C258.359 63.618 256.423 63.7929 254.564 63.9428C242.168 64.9427 229.773 65.9425 217.377 66.9424C213.986 67.216 210.541 67.4863 207.21 66.7574C203.879 66.0286 200.618 64.1535 198.913 61.0444C197.208 57.9354 197.493 53.5067 200.109 51.2098C200.662 50.7246 200.589 49.8335 200.664 49.0785M205.36 44.894C203.876 45.641 202.395 46.7408 201.906 48.3986C201.732 48.9892 201.696 49.6166 201.535 50.2111C201.115 51.7529 199.908 52.9105 199.271 54.3666C197.942 57.4021 199.456 61.1771 201.989 63.184C204.521 65.1909 207.801 65.7874 210.959 66.0223C222.325 66.8677 233.626 63.8214 245.017 63.5184C249.491 63.3995 254.108 63.681 258.293 62.0067C259.877 61.373 261.618 59.7695 260.938 58.1306C260.766 57.7166 260.457 57.3845 260.132 57.0897C258.128 55.2695 255.259 54.573 252.704 55.2871C251.401 55.6512 250.313 54.255 249.599 53.0472C246.495 47.7918 242.98 42.5535 237.965 39.3429C232.951 36.1323 226.074 35.4302 221.409 39.1837C219.313 40.8704 217.363 43.4911 214.743 43.1975C211.547 42.8395 208.261 43.4337 205.36 44.894Z" fill="#08253D"/>
<path fill-rule="evenodd" clip-rule="evenodd" d="M31.773 29.4958C31.3547 30.8749 31.882 32.3591 32.4536 33.6754C33.1179 35.2052 34.2097 36.9309 35.7999 36.8248C40.7102 36.4972 45.6206 36.1696 50.531 35.8421C51.2424 35.7946 52.2212 35.9905 52.2254 36.7435C46.0678 37.2642 39.9102 37.7848 33.7526 38.3054C29.6107 38.6556 25.2796 39.0705 21.7823 41.4407C18.285 43.8109 16.0053 48.8083 17.8918 52.7191C18.6066 54.201 20.0095 55.4397 21.5832 55.3902C25.8244 55.2568 30.0657 55.1234 34.3069 54.99C35.2951 54.9589 36.6474 55.2884 36.6032 56.3316C29.863 55.9062 23.0831 56.1878 16.3953 57.1709C13.9943 57.5239 11.5245 57.9999 9.51097 59.4259C7.49748 60.8519 6.05069 63.4701 6.61449 65.9606C7.00362 67.6796 8.27832 69.0602 9.75239 69.8963C11.2265 70.7325 12.8951 71.0948 14.5451 71.3875C32.0436 74.4911 49.9949 70.8611 67.6918 72.2169C69.6718 72.3686 71.8155 72.6622 73.2258 74.1382C57.958 71.0426 42.2128 74.4972 26.6837 73.7211C23.2272 73.5483 19.7835 73.1656 16.3421 72.7831C13.5253 72.47 10.5741 72.1059 8.25037 70.3953C7.13233 69.5722 6.19511 68.4351 5.72741 67.083C4.56874 63.7333 6.61342 59.9066 9.49459 58.0477C12.3758 56.1889 15.8719 55.8208 19.2341 55.4978C16.4862 53.5115 15.6692 49.3278 16.8581 46.0424C18.047 42.757 20.8747 40.3615 23.974 39.0759C27.0732 37.7902 30.4499 37.4796 33.7759 37.3142C32.795 35.9571 31.7996 34.5721 31.2513 32.9659C30.703 31.3598 30.6626 29.4679 31.5374 28.0323C32.1458 27.0338 33.1215 26.358 34.0951 25.7646C43.4084 20.088 54.6664 19.4289 65.4156 19.7104C68.3364 19.7869 71.3526 19.9469 73.9794 21.2982C78.0544 23.3945 80.5314 28.2415 80.5561 33.0294C80.5808 37.8173 78.3876 42.4371 75.1643 45.8032C74.6466 45.0455 75.2937 44.0382 75.8608 43.3211C78.4868 40.0006 79.9787 35.5734 79.4201 31.2871C78.8615 27.0008 76.0775 22.9916 72.1965 21.6082C70.5747 21.0302 68.8433 20.9081 67.134 20.8161C56.0189 20.2178 44.3699 20.8323 34.6351 26.5307C33.4367 27.2322 32.1909 28.1175 31.773 29.4958Z" fill="#08253D"/>
<path fill-rule="evenodd" clip-rule="evenodd" d="M106.991 112.075C99.3198 104.373 90.4635 96.577 88.3976 85.6125C92.1891 95.8986 100.608 103.304 107.993 111.114C115.377 118.924 122.371 128.667 121.915 139.695C133.988 136.91 146.5 136.258 158.774 137.772C160.032 131.786 163.695 126.747 166.569 121.42C173.693 108.214 176.101 92.8394 178.391 77.8331C178.969 74.0391 174.572 71.7902 171.047 70.8414C167.526 69.8937 164.005 68.946 160.484 67.9983C153.867 66.2172 147.011 64.4235 140.28 65.6413C135.729 66.4649 131.235 68.6556 126.683 67.8354C119.437 66.5297 111.75 68.1831 105.565 72.3775C102.456 74.4861 99.7209 77.3515 96.298 78.7621C88.887 81.8164 84.6306 85.5155 78.2858 93.96C75.8948 80.8955 79.9231 67.5255 84.6327 55.1841C89.8975 41.3881 96.5063 27.4294 107.834 18.5928C124.441 5.63691 148.744 6.95865 166.02 18.8995C183.296 30.8404 193.852 51.7312 197.264 73.2401C197.66 75.7418 197.942 78.4494 196.827 80.696C195.712 82.9425 192.64 84.2425 190.822 82.5852C189.273 81.1723 187.624 79.707 185.613 79.3003C183.602 78.8935 181.163 79.9972 180.773 82.1201C177.919 97.6668 174.921 113.608 166.989 127.047C164.924 130.546 162.519 133.888 161.205 137.772C160.2 140.743 159.876 143.916 159.559 147.054C158.899 153.592 158.239 160.13 157.579 166.669C157.301 169.425 156.913 172.426 155.013 174.337C153.198 176.161 150.497 176.489 148.001 176.723C139.897 177.484 131.792 178.244 123.687 179.005C122.238 179.141 120.594 179.21 119.535 178.155C118.72 177.343 118.494 176.084 118.333 174.912C117.195 166.594 117.195 158.103 118.334 149.785C119.969 137.85 114.913 125.64 106.949 117C102.799 112.498 97.9046 108.817 93.7611 104.308C89.6177 99.7981 86.1498 94.1305 85.9012 87.8517C88.7206 96.1039 93.9161 103.431 100.62 108.61C110.638 116.349 117.776 128.141 120.224 140.994C122.148 130 114.662 119.777 106.991 112.075ZM124.197 66.3185C127.457 66.6548 130.87 67.5107 133.912 66.2291C142.104 62.7777 151.606 62.9603 159.674 66.724C163.117 68.3303 166.993 68.4188 170.701 69.1042C174.408 69.7897 178.322 71.3525 180.21 74.7922C182.33 78.655 188.56 77.5873 190.974 81.2525C191.975 82.7724 194.438 82.1932 195.386 80.6356C196.334 79.078 196.206 77.0731 195.994 75.235C194.269 60.2737 189.082 45.6046 180.131 33.8678C171.18 22.1309 158.339 13.5001 144.251 11.1139C130.163 8.72771 114.961 12.9458 104.534 23.2338C98.2232 29.4607 93.8459 37.5388 89.9996 45.7065C83.3008 59.9319 77.8171 75.4622 78.8991 91.3093C83.3951 85.5622 88.2793 79.5324 95.0227 77.3318C96.633 76.8063 98.3974 76.4688 99.6196 75.2429C106.098 68.7445 115.305 65.4012 124.197 66.3185ZM131.402 164.369C131.377 168.189 131.919 172.014 133.002 175.659C133.094 175.97 133.208 176.305 133.47 176.478C133.725 176.645 134.05 176.614 134.348 176.576C137.972 176.118 141.596 175.66 145.22 175.202C145.353 175.186 145.501 175.16 145.581 175.046C145.664 174.928 145.638 174.764 145.61 174.621C144.957 171.382 144.305 168.143 143.652 164.905C143.616 164.723 143.574 164.53 143.452 164.395C143.303 164.23 143.07 164.191 142.855 164.162C139.295 163.686 135.699 163.509 132.113 163.633C131.903 163.64 131.668 163.66 131.53 163.828C131.412 163.971 131.403 164.179 131.402 164.369ZM142.904 150.869C142.785 150.697 142.559 150.663 142.358 150.644C138.704 150.303 135.017 150.359 131.374 150.811C131.163 150.837 130.939 150.87 130.776 151.014C130.508 151.249 130.506 151.674 130.526 152.042C130.648 154.222 130.77 156.402 130.891 158.582C130.921 159.114 131.117 159.817 131.621 159.79C135.194 159.601 138.783 159.739 142.333 160.203C142.822 160.267 143.01 159.555 143.01 159.035C143.005 156.466 143.001 153.897 142.997 151.328C142.997 151.169 142.993 150.998 142.904 150.869ZM120.253 165.681C119.977 165.813 119.695 165.962 119.508 166.213C119.21 166.614 119.223 167.172 119.25 167.681C119.343 169.465 119.437 171.25 119.53 173.034C119.578 173.937 119.628 174.855 119.918 175.706C120.207 176.557 120.776 177.347 121.579 177.661C122.24 177.921 122.972 177.834 123.672 177.743C124.997 177.571 126.322 177.399 127.647 177.227C128.191 177.157 128.754 177.079 129.22 176.773C127.978 172.789 127.153 168.661 126.764 164.486C126.737 164.194 126.365 164.125 126.087 164.144C124.076 164.278 122.088 164.802 120.253 165.681ZM155.902 160.903C156.294 158.342 156.687 155.781 157.079 153.22C157.113 152.995 157.142 152.744 157.018 152.559C156.891 152.371 156.652 152.32 156.436 152.283C153.564 151.796 150.685 151.356 147.799 150.964C147.583 150.935 147.32 150.926 147.195 151.115C147.121 151.228 147.123 151.376 147.128 151.514C147.233 154.184 147.337 156.854 147.441 159.524C147.451 159.768 147.473 160.04 147.645 160.202C147.767 160.317 147.938 160.349 148.099 160.376C150.521 160.789 152.943 161.203 155.365 161.616C155.682 161.67 155.851 161.238 155.902 160.903ZM130.722 145.795C130.67 146.09 130.652 146.467 130.901 146.612C131.02 146.682 131.166 146.67 131.301 146.656C135.099 146.271 138.898 145.885 142.696 145.5C142.892 145.48 143.099 145.456 143.257 145.332C143.472 145.163 143.538 144.859 143.588 144.581C143.898 142.889 144.208 141.196 144.517 139.504C144.561 139.264 144.588 138.97 144.407 138.817C144.281 138.71 144.102 138.719 143.94 138.733C140.299 139.055 136.658 139.377 133.017 139.699C132.72 139.725 132.409 139.756 132.158 139.925C131.732 140.212 131.603 140.796 131.511 141.32C131.248 142.812 130.985 144.303 130.722 145.795ZM147.835 140.229C147.692 141.696 147.55 143.163 147.408 144.63C147.385 144.872 147.364 145.131 147.476 145.343C147.64 145.657 148.02 145.748 148.354 145.808C151.402 146.35 154.45 146.892 157.498 147.435C157.624 147.457 157.759 147.479 157.876 147.425C158.101 147.324 158.151 147.017 158.167 146.759C158.289 144.866 158.316 142.966 158.249 141.07C158.237 140.743 158.221 140.407 158.095 140.109C157.713 139.202 156.576 139.052 155.637 139.032C153.437 138.984 151.237 138.937 149.037 138.89C148.809 138.885 148.57 138.883 148.368 138.995C147.972 139.214 147.88 139.759 147.835 140.229ZM180.28 77.8258C178.707 79.9916 178.276 82.8188 177.876 85.5155C175.856 99.1565 173.236 113.114 166.13 124.702C163.696 128.672 160.662 132.592 160.318 137.308C161.659 132.398 165.371 128.683 167.919 124.34C169.789 121.153 171.036 117.609 172.179 114.06C174.937 105.492 177.158 96.7314 178.821 87.8542C179.42 84.6627 180.009 81.3055 181.955 78.7832C181.294 78.7762 180.647 78.406 180.28 77.8258ZM125.754 160.299C125.965 160.241 126.191 160.173 126.329 159.993C126.476 159.801 126.482 159.533 126.482 159.285C126.479 156.931 126.477 154.577 126.474 152.223C126.474 152.054 126.469 151.869 126.367 151.738C126.221 151.55 125.951 151.557 125.722 151.583C123.954 151.788 122.203 152.155 120.495 152.681C120.294 152.742 120.084 152.813 119.942 152.974C119.779 153.159 119.737 153.427 119.704 153.677C119.372 156.219 119.239 158.79 119.308 161.355C119.314 161.564 119.343 161.812 119.518 161.908C119.64 161.975 119.787 161.94 119.92 161.903C121.864 161.368 123.809 160.834 125.754 160.299ZM154.236 172.981C155.524 171.345 155.535 169.012 155.482 166.885C155.472 166.471 155.011 166.266 154.63 166.167C152.595 165.637 150.528 165.245 148.445 164.995C148.263 164.973 148.063 164.957 147.911 165.066C147.679 165.231 147.681 165.587 147.712 165.881C147.994 168.627 148.534 171.343 149.32 173.976C149.412 174.282 149.532 174.619 149.806 174.756C149.954 174.83 150.124 174.833 150.287 174.828C151.77 174.783 153.287 174.186 154.236 172.981ZM123.119 141.315C122.613 141.469 122.097 141.649 121.698 142.013C121.32 142.358 121.08 142.84 120.892 143.33C120.298 144.884 120.163 146.585 120.034 148.257C120.024 148.384 120.018 148.525 120.092 148.627C120.202 148.779 120.421 148.759 120.6 148.723C122.142 148.418 123.683 148.113 125.224 147.808C125.663 147.721 126.149 147.603 126.398 147.211C126.568 146.945 126.589 146.607 126.604 146.286C126.699 144.363 126.793 142.439 126.887 140.515C125.613 140.673 124.351 140.94 123.119 141.315ZM131.772 149.552C135.138 149.167 138.539 149.12 141.914 149.411C142.296 149.444 142.717 149.471 143.027 149.232C143.513 148.857 143.447 148.084 143.331 147.461C143.301 147.298 143.266 147.126 143.158 147.005C142.986 146.813 142.699 146.821 142.45 146.843C139.081 147.142 135.712 147.44 132.343 147.739C131.878 147.78 131.382 147.834 131.021 148.146C130.661 148.458 130.544 149.127 130.915 149.425C131.151 149.613 131.478 149.586 131.772 149.552ZM157.42 149.27C157.015 148.832 156.406 148.704 155.836 148.597C153.315 148.124 150.794 147.651 148.272 147.178C147.943 147.116 147.539 147.084 147.341 147.368C147.255 147.492 147.231 147.651 147.21 147.803C147.102 148.561 147.191 149.616 147.91 149.716C150.776 150.115 153.641 150.514 156.507 150.912C156.791 150.952 157.097 150.988 157.35 150.847C157.863 150.563 157.825 149.707 157.42 149.27ZM128.376 164.294C128.205 164.79 128.291 165.338 128.38 165.857C128.923 169.03 129.513 172.194 130.189 175.338C130.28 175.762 130.381 176.203 130.647 176.534C130.914 176.865 131.4 177.041 131.747 176.809C132.269 176.46 132.077 175.624 131.852 175.016C130.693 171.874 130.363 168.465 130.203 165.097C130.175 164.506 130.067 163.785 129.541 163.58C129.072 163.399 128.547 163.799 128.376 164.294ZM155.235 164.879C155.845 164.633 155.423 163.533 155.86 163.02C153.325 162.352 150.741 161.894 148.139 161.652C147.526 161.594 147.241 162.571 147.607 163.095C147.972 163.619 148.64 163.768 149.247 163.879C149.794 163.979 150.341 164.079 150.889 164.179C152.173 164.414 153.458 164.648 154.742 164.883C154.906 164.913 155.079 164.942 155.235 164.879ZM132.369 162.473C135.514 162.278 138.677 162.403 141.8 162.845C142.424 162.934 143.289 162.856 143.373 162.197C143.459 161.516 142.589 161.216 141.939 161.182C138.778 161.016 135.612 160.992 132.45 161.112C131.889 161.133 131.122 161.433 131.269 162.004C131.383 162.442 131.94 162.499 132.369 162.473ZM144.445 151.272C144.298 151.598 144.294 151.972 144.293 152.333C144.286 154.368 144.279 156.403 144.272 158.437C144.27 158.889 144.272 159.357 144.452 159.767C144.631 160.176 145.043 160.509 145.463 160.431C146.161 160.301 146.291 159.313 146.252 158.566C146.14 156.401 146.028 154.236 145.916 152.071C145.889 151.538 145.757 150.869 145.263 150.76C144.928 150.687 144.593 150.947 144.445 151.272ZM146.594 165.352C146.454 164.926 146.131 164.534 145.708 164.472C145.286 164.411 144.819 164.812 144.9 165.254C145.396 167.949 145.891 170.643 146.386 173.338C146.502 173.969 146.662 174.671 147.178 175.013C147.693 175.355 148.589 174.897 148.396 174.287C147.614 171.813 146.826 169.296 146.742 166.689C146.728 166.239 146.733 165.778 146.594 165.352ZM129.354 159.604C129.584 159.169 129.566 158.642 129.541 158.145C129.456 156.412 129.37 154.679 129.285 152.945C129.258 152.407 129.214 151.822 128.869 151.424C128.524 151.026 127.768 151.023 127.602 151.533C127.558 151.669 127.563 151.816 127.567 151.959C127.646 154.278 127.724 156.597 127.802 158.916C127.816 159.318 127.857 159.778 128.166 160.014C128.547 160.305 129.124 160.038 129.354 159.604ZM128.174 140.635C127.737 141.271 127.718 142.115 127.715 142.9C127.711 143.983 127.707 145.066 127.704 146.148C127.702 146.729 127.903 147.521 128.45 147.465C128.877 147.421 129.048 146.868 129.12 146.421C129.439 144.411 129.759 142.401 130.078 140.391C129.63 139.764 128.61 139.998 128.174 140.635ZM125.174 163.216C125.624 163.174 126.126 163.133 126.43 162.78C126.734 162.427 126.544 161.673 126.096 161.738C124.714 161.938 123.332 162.138 121.95 162.338C121.233 162.442 120.472 162.566 119.926 163.068C119.38 163.569 119.2 164.587 119.759 165.073C121.401 164.036 123.268 163.396 125.174 163.216ZM120.136 150.144C119.723 150.56 119.649 151.395 120.137 151.707C121.72 151.149 123.358 150.77 125.016 150.579C125.425 150.531 125.859 150.486 126.186 150.224C126.513 149.961 126.658 149.394 126.361 149.093C126.128 148.856 125.756 148.891 125.436 148.942C124.196 149.138 122.956 149.334 121.715 149.531C121.151 149.62 120.549 149.728 120.136 150.144ZM145.986 138.958C145.84 139.122 145.796 139.357 145.758 139.579C145.467 141.271 145.175 142.963 144.884 144.655C144.831 144.961 144.799 145.331 145.025 145.53C145.256 145.733 145.632 145.608 145.814 145.355C145.996 145.103 146.036 144.77 146.069 144.455C146.25 142.759 146.43 141.062 146.611 139.366C146.627 139.214 146.639 139.044 146.549 138.923C146.417 138.746 146.132 138.793 145.986 138.958ZM145.442 161.368C144.836 161.29 144.248 162.107 144.626 162.614C144.89 162.968 145.2 163.329 145.617 163.426C146.034 163.522 146.553 163.201 146.513 162.752C146.456 162.11 146.047 161.446 145.442 161.368ZM145.681 148.378C145.885 147.86 145.934 147.031 145.406 146.966C145.2 146.94 145.004 147.074 144.863 147.235C144.205 147.981 144.545 149.406 145.459 149.733C145.752 149.376 145.855 148.856 145.722 148.404C145.577 147.911 145.493 148.856 145.681 148.378ZM129.321 149.328C129.198 148.85 128.822 148.401 128.354 148.396C127.746 148.39 127.349 149.301 127.748 149.784C128.147 150.268 129.055 149.977 129.132 149.34C129.201 148.776 129.462 149.876 129.321 149.328ZM129.691 162.455C129.835 162.325 129.939 162.146 129.982 161.951C129.582 161.479 128.881 161.326 128.337 161.592C128.217 161.651 128.1 161.733 128.032 161.853C127.836 162.197 128.161 162.659 128.536 162.725C128.911 162.79 129.278 162.597 129.614 162.41L129.691 162.455Z" fill="#08253D"/>
</svg>
